<?xml version="1.0" encoding="utf-8"?>
<!DOCTYPE svg PUBLIC "-//W3C//DTD SVG 1.1//EN" "http://www.w3.org/Graphics/SVG/1.1/DTD/svg11.dtd">
<svg version="1.1" id="dhcp_informatica" xmlns="http://www.w3.org/2000/svg" xmlns:xlink="http://www.w3.org/1999/xlink" x="0px" y="0px"
	 width="164px" height="53px" viewBox="0 0 164 53" enable-background="new 0 0 164 53" xml:space="preserve">
<g>
	<path id="d" fill="#231F20" d="M40.217,13.522H14.274L4.831,39.502h25.941c2.639,0,4.592-0.473,5.86-1.419
		c1.17-0.92,2.165-2.612,2.986-5.076l4.703-12.99c0.522-1.443,0.784-2.551,0.784-3.322C45.106,14.58,43.477,13.522,40.217,13.522z
		 M25.473,36.254h-6.495l7.092-19.484h6.495L25.473,36.254z"/>
	<path id="h" fill="#E95348" d="M3.717,42.653h56.155l6.051-16.139h-6.494l-4.703,12.989h-12.99L54.534,5.085
		c0.598-1.618,1.307-2.763,2.128-3.435c1.318-1.07,3.384-1.605,6.196-1.605h6.495l0.12-0.017L163.972,0l-3.729,10.462l-94.785-0.056
		l-4.835,12.861h6.495l1.717-4.703c0.597-1.618,1.307-2.762,2.127-3.434c1.319-1.07,3.372-1.605,6.159-1.605h6.495L71.34,46.488
		c-0.796,2.464-1.792,4.156-2.986,5.077c-1.27,0.945-3.223,1.418-5.86,1.418L0.028,53L3.717,42.653z"/>
	<path id="c" fill="#231F20" d="M119.882,20.019h-12.989l1.194-3.248h-6.606l-7.093,19.484h6.495l3.546-9.742h12.99l-2.39,6.495
		c-0.896,2.488-1.916,4.168-3.061,5.039c-1.244,0.971-3.173,1.456-5.785,1.456H80.241l7.614-20.941
		c0.598-1.617,1.307-2.762,2.128-3.434c1.294-1.07,3.31-1.605,6.047-1.605h19.709c3.284,0,4.927,1.07,4.927,3.21
		c0,0.846-0.273,1.941-0.821,3.285H119.882z"/>
	<path id="p" fill="#231F20" d="M152.679,13.524h-19.596c-2.737,0-4.754,0.535-6.047,1.605c-0.822,0.672-1.531,1.817-2.128,3.434
		l-7.615,20.941h12.99l3.546-9.742h12.952c2.613,0,4.542-0.486,5.786-1.456c1.169-0.871,2.189-2.551,3.061-5.04l1.231-3.359
		c0.473-1.369,0.71-2.438,0.71-3.21C157.569,14.582,155.939,13.524,152.679,13.524z M141.481,26.514h-6.495l3.546-9.742h6.495
		L141.481,26.514z"/>
</g>
<g>
	<path class="informatica" fill="#231F20" d="M132.836,42.608l-0.473,0.448l-0.467,0.451c-0.178,0.173-0.33,0.273-0.46,0.302
		c-0.141,0.033-0.317-0.002-0.528-0.104l-0.449-0.219l1.498-1.457c0.115-0.112,0.222-0.181,0.316-0.204
		c0.148-0.04,0.335-0.005,0.556,0.103l-0.055-0.026c0.266,0.129,0.354,0.283,0.263,0.462c-0.035,0.071-0.104,0.152-0.204,0.244
		L132.836,42.608z"/>
	<path class="informatica" fill="#231F20" d="M79.124,50.937h-2.976l1.798-5.013c0.141-0.387,0.306-0.661,0.496-0.822
		c0.305-0.256,0.779-0.384,1.424-0.384h1.488L79.124,50.937z"/>
	<path class="informatica" fill="#231F20" d="M88.378,44.718c0.747,0,1.118,0.253,1.112,0.76c-0.001,0.185-0.064,0.449-0.188,0.795l-1.11,3.109
		c-0.194,0.59-0.427,0.994-0.697,1.215c-0.294,0.227-0.742,0.34-1.347,0.34h-1.479l1.947-5.441h-1.487l-1.948,5.441h-2.977
		l1.798-5.013c0.142-0.387,0.307-0.661,0.496-0.822c0.294-0.25,0.754-0.375,1.381-0.375L88.378,44.718z"/>
	<path class="informatica" fill="#231F20" d="M97.766,44.718c0.284,0,0.425,0.131,0.423,0.393c-0.001,0.102-0.039,0.19-0.114,0.269
		c-0.074,0.077-0.181,0.116-0.317,0.116h-4.123l-0.555,1.555h3.857c0.285,0,0.426,0.131,0.423,0.393
		c-0.001,0.102-0.04,0.19-0.118,0.269c-0.077,0.077-0.182,0.116-0.313,0.116h-4.131l-1.111,3.109h-2.976l1.797-5.013
		c0.142-0.387,0.307-0.661,0.496-0.822c0.3-0.256,0.763-0.384,1.39-0.384H97.766z"/>
	<path class="informatica" fill="#231F20" d="M106.123,44.718c0.747,0,1.118,0.253,1.112,0.76c-0.001,0.185-0.063,0.449-0.188,0.795l-1.111,3.109
		c-0.194,0.596-0.426,1-0.696,1.215c-0.293,0.227-0.742,0.34-1.347,0.34h-6.688l1.798-5.013c0.142-0.387,0.307-0.661,0.497-0.822
		c0.305-0.256,0.778-0.384,1.423-0.384H106.123z M100.455,50.159h2.232l1.675-4.664h-2.232L100.455,50.159z"/>
	<path class="informatica" fill="#231F20" d="M114.63,44.718c0.746,0,1.118,0.253,1.112,0.76c-0.002,0.172-0.05,0.404-0.145,0.696l-0.035,0.099
		c-0.194,0.59-0.433,0.994-0.714,1.215s-0.725,0.334-1.329,0.34c0.747,0,1.117,0.253,1.111,0.759
		c-0.001,0.186-0.063,0.447-0.188,0.787l-0.555,1.563h-2.968l1.11-3.109h-1.488l-1.11,3.109h-2.977l1.798-5.013
		c0.141-0.387,0.306-0.661,0.496-0.822c0.299-0.256,0.762-0.384,1.389-0.384H114.63z M110.825,47.05h1.488l0.555-1.555h-1.488
		L110.825,47.05z"/>
	<path class="informatica" fill="#231F20" d="M124.632,44.718c0.747,0,1.118,0.253,1.112,0.76c-0.002,0.185-0.063,0.449-0.188,0.795l-1.11,3.109
		c-0.195,0.59-0.433,0.996-0.715,1.22s-0.725,0.335-1.329,0.335h-0.744l1.957-5.441h-1.096l-1.956,5.441h-2.224l1.516-4.235
		c0.123-0.334,0.254-0.578,0.393-0.732c0.226-0.244,0.549-0.402,0.972-0.474h-2.069l-1.948,5.441h-2.232l1.798-5.013
		c0.142-0.387,0.307-0.661,0.496-0.822c0.294-0.25,0.754-0.375,1.382-0.375L124.632,44.718z"/>
	<path class="informatica" fill="#231F20" d="M142.636,44.718c0.137,0,0.243,0.038,0.319,0.116c0.076,0.077,0.113,0.17,0.113,0.276
		c-0.004,0.257-0.149,0.385-0.441,0.385h-1.933l-1.956,5.441h-2.968l1.947-5.441h-1.71c-0.132,0-0.235-0.039-0.311-0.116
		c-0.077-0.078-0.114-0.167-0.113-0.269c0.002-0.262,0.146-0.393,0.432-0.393H142.636z"/>
	<path class="informatica" fill="#231F20" d="M145.066,50.937h-2.977l1.798-5.013c0.141-0.387,0.306-0.661,0.496-0.822
		c0.305-0.256,0.779-0.384,1.424-0.384h1.488L145.066,50.937z"/>
	<path class="informatica" fill="#231F20" d="M155.278,46.272h-2.976l0.281-0.777h-1.514l-1.675,4.664h1.488l0.838-2.332h2.977l-0.564,1.555
		c-0.212,0.596-0.45,0.998-0.714,1.206c-0.287,0.232-0.73,0.349-1.329,0.349h-5.944l1.797-5.013
		c0.142-0.387,0.307-0.661,0.497-0.822c0.299-0.256,0.763-0.384,1.39-0.384h4.516c0.752,0,1.126,0.256,1.121,0.769
		c-0.002,0.202-0.067,0.464-0.196,0.786H155.278z"/>
	<path class="informatica" fill="#231F20" d="M162.858,44.718c0.746,0,1.118,0.253,1.112,0.76c-0.002,0.185-0.064,0.449-0.188,0.795l-1.11,3.109
		c-0.194,0.59-0.427,0.994-0.697,1.215c-0.293,0.227-0.741,0.34-1.346,0.34h-1.48l0.829-2.332h-1.479l-0.837,2.332h-2.977
		l1.798-5.013c0.141-0.387,0.306-0.661,0.496-0.822c0.299-0.256,0.762-0.384,1.389-0.384H162.858z M158.771,47.827h1.487
		l0.838-2.332h-1.488L158.771,47.827z"/>
	<path class="informatica" fill="#231F20" d="M133.138,44.718c0.747,0,1.118,0.253,1.112,0.76c-0.001,0.185-0.063,0.449-0.188,0.795l-1.11,3.109
		c-0.195,0.59-0.427,0.994-0.697,1.215c-0.293,0.227-0.742,0.34-1.347,0.34h-1.479l0.828-2.332h-1.479l-0.837,2.332h-2.977
		l1.798-5.013c0.142-0.387,0.307-0.661,0.497-0.822c0.299-0.256,0.762-0.384,1.389-0.384H133.138z M129.052,47.827h1.487l0.838-2.332h-1.489L129.052,47.827z"/>
	</g>
</svg>
